<?xml version="1.0" encoding="utf-8"?>
<!-- Generator: Adobe Illustrator 15.0.0, SVG Export Plug-In . SVG Version: 6.00 Build 0)  -->
<!DOCTYPE svg PUBLIC "-//W3C//DTD SVG 1.1//EN" "http://www.w3.org/Graphics/SVG/1.1/DTD/svg11.dtd">
<?xml-stylesheet type="text/css" href="illustration.css" ?>
<svg version="1.1" id="Layer_1" xmlns="http://www.w3.org/2000/svg" xmlns:xlink="http://www.w3.org/1999/xlink" x="0px" y="0px"
   width="800px" height="600px" viewBox="0 0 800 600" enable-background="new 0 0 800 600" xml:space="preserve">
<g>
  <g enable-background="new    ">
    <g enable-background="new    ">
      <g>
        <defs>
          <path id="SVGID_1_" d="M761.624,372.529c-0.008,2.656-0.016,5.314-0.023,7.973c-0.001,0.571-0.377,1.142-1.126,1.577
            l0.023-7.974C761.247,373.671,761.622,373.1,761.624,372.529z"/>
        </defs>
        <clipPath id="SVGID_2_">
          <use xlink:href="#SVGID_1_"  overflow="visible"/>
        </clipPath>
        <g clip-path="url(#SVGID_2_)" enable-background="new    ">
          <path fill="#464646" d="M761.624,372.528l-0.023,7.974c-0.001,0.571-0.377,1.142-1.126,1.577l0.023-7.974
            C761.247,373.671,761.622,373.1,761.624,372.528"/>
        </g>
      </g>
    </g>
    <g enable-background="new    ">
      <g>
        <defs>
          <path id="SVGID_3_" d="M34.46,380.484c0.008-2.657,0.015-5.315,0.022-7.975c-0.001,0.578,0.381,1.158,1.144,1.599l-0.022,7.974
            C34.84,381.642,34.458,381.062,34.46,380.484z"/>
        </defs>
        <clipPath id="SVGID_4_">
          <use xlink:href="#SVGID_3_"  overflow="visible"/>
        </clipPath>
        <g clip-path="url(#SVGID_4_)" enable-background="new    ">
          <path fill="#464646" d="M35.626,374.108l-0.022,7.974c-0.763-0.44-1.145-1.02-1.144-1.598l0.022-7.975
            C34.481,373.089,34.863,373.669,35.626,374.108"/>
        </g>
      </g>
    </g>
    <g>
      <polygon fill="#3D3D3D" points="760.498,374.105 760.475,382.079 401.951,590.43 401.974,582.457       "/>
    </g>
    <g>
      <polygon fill="#3D3D3D" points="396.5,582.459 396.478,590.433 35.604,382.082 35.626,374.108       "/>
    </g>
    <g>
      <path fill="#565656" d="M760.484,370.936c1.516,0.874,1.519,2.296,0.014,3.171L401.974,582.457
        c-1.51,0.877-3.958,0.877-5.474,0.002L35.626,374.108c-1.515-0.875-1.527-2.296-0.018-3.173l358.524-208.352
        c1.506-0.875,3.962-0.875,5.479,0L760.484,370.936z"/>
    </g>
    <g enable-background="new    ">
      <g>
        <path id="SVGID_5_" fill="#424242" d="M401.974,582.457l-0.021,7.973c-1.51,0.878-3.958,0.878-5.475,0.003l0.022-7.974
          C398.015,583.334,400.464,583.334,401.974,582.457z"/>
      </g>
      <g>
        <defs>
          <path id="SVGID_6_" d="M401.974,582.457l-0.021,7.973c-1.51,0.878-3.958,0.878-5.475,0.003l0.022-7.974
            C398.015,583.334,400.464,583.334,401.974,582.457z"/>
        </defs>
        <clipPath id="SVGID_7_">
          <use xlink:href="#SVGID_6_"  overflow="visible"/>
        </clipPath>
        <g clip-path="url(#SVGID_7_)" enable-background="new    ">
          <path fill="#424242" d="M401.974,582.457l-0.021,7.973c-1.51,0.878-3.958,0.878-5.475,0.003l0.022-7.974
            C398.015,583.334,400.464,583.334,401.974,582.457"/>
        </g>
      </g>
    </g>
  </g>
</g>
<g id="platform-group">
  <path id="platform-shadow" opacity="0.1" enable-background="new    " d="M399.61,162.584c-1.517-0.875-3.972-0.875-5.479,0L60.037,356.74
    l336.461,194.256c1.515,0.875,3.968,0.872,5.474-0.003l334.096-194.154L399.61,162.584z"/>
  <g id="platform">
    <g>
      <g enable-background="new    ">
        <g enable-background="new    ">
          <g>
            <defs>
              <path id="SVGID_8_" d="M761.624,289.066c-0.008,2.658-0.016,5.315-0.022,7.973c-0.002,0.57-0.377,1.14-1.128,1.576
                l0.023-7.974C761.247,290.206,761.623,289.636,761.624,289.066z"/>
            </defs>
            <clipPath id="SVGID_9_">
              <use xlink:href="#SVGID_8_"  overflow="visible"/>
            </clipPath>
            <g clip-path="url(#SVGID_9_)" enable-background="new    ">
              <path fill="#C9C9C9" d="M761.624,289.066l-0.022,7.973c-0.002,0.57-0.377,1.14-1.128,1.576l0.023-7.974
                C761.247,290.206,761.623,289.636,761.624,289.066"/>
            </g>
          </g>
        </g>
        <g enable-background="new    ">
          <g>
            <defs>
              <path id="SVGID_10_" d="M34.46,297.021c0.007-2.658,0.016-5.316,0.023-7.974c-0.002,0.578,0.379,1.157,1.142,1.598
                l-0.022,7.973C34.839,298.178,34.458,297.6,34.46,297.021z"/>
            </defs>
            <clipPath id="SVGID_12_">
              <use xlink:href="#SVGID_10_"  overflow="visible"/>
            </clipPath>
            <g clip-path="url(#SVGID_12_)" enable-background="new    ">
              <path fill="#C9C9C9" d="M35.625,290.646l-0.022,7.973c-0.763-0.44-1.144-1.019-1.142-1.597l0.023-7.974
                C34.481,289.626,34.862,290.205,35.625,290.646"/>
            </g>
          </g>
        </g>
        <g>
          <polygon fill="#AFAFAF" points="760.497,290.642 760.474,298.615 401.95,506.967 401.973,498.993         "/>
        </g>
        <g>
          <polygon fill="#ADADAD" points="396.499,498.996 396.476,506.969 35.602,298.618 35.625,290.646         "/>
        </g>
        <g>
          <path fill="#F7F7F7" d="M760.483,287.472c1.516,0.875,1.521,2.293,0.014,3.17L401.973,498.993
            c-1.506,0.875-3.959,0.878-5.474,0.003L35.625,290.646c-1.515-0.875-1.523-2.298-0.018-3.173L394.131,79.121
            c1.51-0.877,3.962-0.875,5.479,0L760.483,287.472z"/>
        </g>
        <g enable-background="new    ">
          <g>
            <path id="SVGID_11_" fill="#B7B7B7" d="M401.973,498.993l-0.021,7.974c-1.507,0.875-3.959,0.877-5.475,0.002l0.022-7.973
              C398.014,499.871,400.466,499.868,401.973,498.993z"/>
          </g>
          <g>
            <defs>
              <path id="SVGID_14_" d="M401.973,498.993l-0.021,7.974c-1.507,0.875-3.959,0.877-5.475,0.002l0.022-7.973
                C398.014,499.871,400.466,499.868,401.973,498.993z"/>
            </defs>
            <clipPath id="SVGID_16_">
              <use xlink:href="#SVGID_14_"  overflow="visible"/>
            </clipPath>
            <g clip-path="url(#SVGID_16_)" enable-background="new    ">
              <path fill="#B7B7B7" d="M401.973,498.993l-0.021,7.974c-1.507,0.875-3.959,0.877-5.475,0.002l0.022-7.973
                C398.014,499.871,400.466,499.868,401.973,498.993"/>
            </g>
          </g>
        </g>
      </g>
    </g>
  </g>
</g>
<g opacity="0.05">
  <g>
    <path d="M442.305,241.285c24.593,14.199,24.723,37.216,0.293,51.412c-24.433,14.2-64.168,14.2-88.762,0
      c-24.588-14.196-24.718-37.213-0.285-51.412C377.979,227.089,417.717,227.088,442.305,241.285z"/>
  </g>
  <g>
    <path d="M575.878,318.403c24.588,14.195,24.718,37.214,0.289,51.409c-24.433,14.198-64.17,14.198-88.758,0.004
      c-24.592-14.199-24.724-37.218-0.289-51.415C511.548,304.205,551.286,304.205,575.878,318.403z"/>
  </g>
  <g>
    <path d="M309.604,318.402c24.592,14.197,24.722,37.215,0.289,51.414c-24.428,14.195-64.166,14.195-88.758-0.002
      c-24.588-14.195-24.718-37.214-0.289-51.409C245.277,304.206,285.015,304.206,309.604,318.402z"/>
  </g>
  <g>
    <path d="M443.177,395.521c24.588,14.195,24.718,37.214,0.285,51.411c-24.429,14.196-64.166,14.196-88.754,0.001
      c-24.592-14.197-24.721-37.216-0.293-51.411C378.847,381.322,418.584,381.322,443.177,395.521z"/>
  </g>
  <path d="M620.114,292.696c24.588,14.196,64.326,14.195,88.755-0.001c11.695-6.796,17.745-15.615,18.193-24.519l-64.972-37.511
    c-15.371,0.289-30.576,3.822-42.271,10.619C595.393,255.48,595.521,278.498,620.114,292.696z"/>
  <path d="M220.267,215.581c24.588,14.196,64.33,14.198,88.762,0c24.428-14.196,24.294-37.216-0.293-51.412
    c-11.844-6.838-27.203-10.372-42.672-10.623l-64.274,37.352C202.271,199.858,208.423,208.743,220.267,215.581z"/>
  <path d="M87.565,292.698c24.588,14.195,64.33,14.198,88.758,0.002c24.433-14.198,24.299-37.218-0.289-51.414
    c-11.844-6.838-27.203-10.372-42.673-10.622l-64.273,37.352C69.57,276.976,75.722,285.86,87.565,292.698z"/>
</g>
<g>
  <g>
    <g>
      <path id="SVGID_17_" fill="#D8D8D8" d="M727.104,196.17c-0.02,7.088-0.039,14.174-0.06,21.262
        c-0.026,9.244-6.102,18.473-18.236,25.526c-24.429,14.196-64.166,14.196-88.755,0c-12.375-7.145-18.557-16.523-18.528-25.887l0,0
        c0.02-7.087,0.04-14.174,0.061-21.262c-0.027,9.364,6.153,18.742,18.529,25.888c24.588,14.196,64.325,14.195,88.755-0.001
        C721.004,214.643,727.079,205.414,727.104,196.17z"/>
    </g>
    <g>
      <defs>
        <path id="SVGID_26_" d="M727.104,196.17c-0.02,7.088-0.039,14.174-0.06,21.262c-0.026,9.244-6.102,18.473-18.236,25.526
          c-24.429,14.196-64.166,14.196-88.755,0c-12.375-7.145-18.557-16.523-18.528-25.887l0,0c0.02-7.087,0.04-14.174,0.061-21.262
          c-0.027,9.364,6.153,18.742,18.529,25.888c24.588,14.196,64.325,14.195,88.755-0.001
          C721.004,214.643,727.079,205.414,727.104,196.17z"/>
      </defs>
      <clipPath id="SVGID_28_">
        <use xlink:href="#SVGID_26_"  overflow="visible"/>
      </clipPath>
      <g clip-path="url(#SVGID_28_)" enable-background="new    ">
        <path fill="#D8D8D8" d="M727.104,196.17l-0.06,21.262c-0.026,9.244-6.102,18.473-18.236,25.526
          c-24.429,14.196-64.166,14.196-88.755,0c-12.375-7.145-18.557-16.523-18.528-25.887l0.061-21.262
          c-0.027,9.364,6.153,18.742,18.529,25.888c24.588,14.196,64.325,14.195,88.755-0.001
          C721.004,214.643,727.079,205.414,727.104,196.17"/>
      </g>
    </g>
  </g>
  <g>
    <g>
      <path id="SVGID_19_" fill="#D8D8D8" d="M327.264,119.056c-0.021,7.087-0.041,14.174-0.061,21.262
        c-0.026,9.243-6.1,18.473-18.235,25.524c-24.433,14.198-64.174,14.196-88.762,0c-12.373-7.144-18.552-16.521-18.525-25.883l0,0
        c0.02-7.087,0.041-14.174,0.06-21.262c-0.026,9.363,6.153,18.74,18.526,25.883c24.588,14.196,64.33,14.198,88.762,0
        C321.164,137.528,327.237,128.299,327.264,119.056z"/>
    </g>
    <g>
      <defs>
        <path id="SVGID_30_" d="M327.264,119.056c-0.021,7.087-0.041,14.174-0.061,21.262c-0.026,9.243-6.1,18.473-18.235,25.524
          c-24.433,14.198-64.174,14.196-88.762,0c-12.373-7.144-18.552-16.521-18.525-25.883l0,0c0.02-7.087,0.041-14.174,0.06-21.262
          c-0.026,9.363,6.153,18.74,18.526,25.883c24.588,14.196,64.33,14.198,88.762,0C321.164,137.528,327.237,128.299,327.264,119.056
          z"/>
      </defs>
      <clipPath id="SVGID_31_">
        <use xlink:href="#SVGID_30_"  overflow="visible"/>
      </clipPath>
      <g clip-path="url(#SVGID_31_)" enable-background="new    ">
        <path fill="#D8D8D8" d="M327.264,119.056l-0.061,21.262c-0.026,9.243-6.1,18.473-18.235,25.524
          c-24.433,14.198-64.174,14.196-88.762,0c-12.373-7.144-18.552-16.521-18.525-25.883l0.06-21.262
          c-0.026,9.363,6.153,18.74,18.526,25.883c24.588,14.196,64.33,14.198,88.762,0C321.164,137.528,327.237,128.299,327.264,119.056
          "/>
      </g>
    </g>
  </g>
  <g>
    <g>
      <path id="SVGID_21_" fill="#D8D8D8" d="M460.834,196.172c-0.02,7.087-0.04,14.174-0.06,21.262
        c-0.026,9.243-6.103,18.473-18.236,25.525c-24.434,14.199-64.17,14.199-88.763,0c-12.373-7.144-18.552-16.521-18.525-25.883
        l0.06-21.262c-0.026,9.363,6.153,18.74,18.525,25.883c24.593,14.198,64.33,14.198,88.762,0
        C454.733,214.645,460.808,205.416,460.834,196.172z"/>
    </g>
    <g>
      <defs>
        <path id="SVGID_32_" d="M460.834,196.172c-0.02,7.087-0.04,14.174-0.06,21.262c-0.026,9.243-6.103,18.473-18.236,25.525
          c-24.434,14.199-64.17,14.199-88.763,0c-12.373-7.144-18.552-16.521-18.525-25.883l0.06-21.262
          c-0.026,9.363,6.153,18.74,18.525,25.883c24.593,14.198,64.33,14.198,88.762,0C454.733,214.645,460.808,205.416,460.834,196.172
          z"/>
      </defs>
      <clipPath id="SVGID_33_">
        <use xlink:href="#SVGID_32_"  overflow="visible"/>
      </clipPath>
      <g clip-path="url(#SVGID_33_)" enable-background="new    ">
        <path fill="#D8D8D8" d="M460.834,196.172l-0.06,21.262c-0.026,9.243-6.103,18.473-18.236,25.525
          c-24.434,14.199-64.17,14.199-88.763,0c-12.373-7.144-18.552-16.521-18.525-25.883l0.06-21.262
          c-0.026,9.363,6.153,18.74,18.525,25.883c24.593,14.198,64.33,14.198,88.762,0C454.733,214.645,460.808,205.416,460.834,196.172
          "/>
      </g>
    </g>
  </g>
  <g>
    <g>
      <path id="SVGID_23_" fill="#D8D8D8" d="M594.403,273.288c-0.021,7.087-0.04,14.174-0.061,21.261
        c-0.025,9.244-6.101,18.475-18.235,25.525c-24.434,14.199-64.172,14.199-88.76,0.004c-12.375-7.146-18.556-16.523-18.528-25.887
        c0.021-7.088,0.041-14.175,0.061-21.262c-0.027,9.364,6.153,18.742,18.529,25.887c24.588,14.195,64.325,14.195,88.758-0.004
        C588.303,291.76,594.378,282.531,594.403,273.288z"/>
    </g>
    <g>
      <defs>
        <path id="SVGID_34_" d="M594.403,273.288c-0.021,7.087-0.04,14.174-0.061,21.261c-0.025,9.244-6.101,18.475-18.235,25.525
          c-24.434,14.199-64.172,14.199-88.76,0.004c-12.375-7.146-18.556-16.523-18.528-25.887c0.021-7.088,0.041-14.175,0.061-21.262
          c-0.027,9.364,6.153,18.742,18.529,25.887c24.588,14.195,64.325,14.195,88.758-0.004
          C588.303,291.76,594.378,282.531,594.403,273.288z"/>
      </defs>
      <clipPath id="SVGID_35_">
        <use xlink:href="#SVGID_34_"  overflow="visible"/>
      </clipPath>
      <g clip-path="url(#SVGID_35_)" enable-background="new    ">
        <path fill="#D8D8D8" d="M594.403,273.288l-0.061,21.261c-0.025,9.244-6.101,18.475-18.235,25.525
          c-24.434,14.199-64.172,14.199-88.76,0.004c-12.375-7.146-18.556-16.523-18.528-25.887l0.061-21.262
          c-0.027,9.364,6.153,18.742,18.529,25.887c24.588,14.195,64.325,14.195,88.758-0.004
          C588.303,291.76,594.378,282.531,594.403,273.288"/>
      </g>
    </g>
  </g>
  <g>
    <g>
      <path id="SVGID_25_" fill="#D8D8D8" d="M194.562,197.173c-0.02,7.087-0.04,14.174-0.06,21.262
        c-0.026,9.244-6.101,18.474-18.238,25.528c-24.428,14.196-64.17,14.193-88.758-0.002c-12.373-7.144-18.553-16.521-18.526-25.884
        c0.02-7.088,0.04-14.174,0.06-21.262c-0.026,9.364,6.153,18.741,18.526,25.884c24.588,14.196,64.33,14.198,88.758,0.002
        C188.46,215.647,194.536,206.417,194.562,197.173z"/>
    </g>
    <g>
      <defs>
        <path id="SVGID_36_" d="M194.562,197.173c-0.02,7.087-0.04,14.174-0.06,21.262c-0.026,9.244-6.101,18.474-18.238,25.528
          c-24.428,14.196-64.17,14.193-88.758-0.002c-12.373-7.144-18.553-16.521-18.526-25.884c0.02-7.088,0.04-14.174,0.06-21.262
          c-0.026,9.364,6.153,18.741,18.526,25.884c24.588,14.196,64.33,14.198,88.758,0.002
          C188.46,215.647,194.536,206.417,194.562,197.173z"/>
      </defs>
      <clipPath id="SVGID_37_">
        <use xlink:href="#SVGID_36_"  overflow="visible"/>
      </clipPath>
      <g clip-path="url(#SVGID_37_)" enable-background="new    ">
        <path fill="#D8D8D8" d="M194.562,196.173l-0.06,21.262c-0.026,9.244-6.101,18.474-18.238,25.528
          c-24.428,14.196-64.17,14.193-88.758-0.002c-12.373-7.144-18.553-16.521-18.526-25.884l0.06-21.262
          c-0.026,9.364,6.153,18.741,18.526,25.884c24.588,14.196,64.33,14.198,88.758,0.002
          C188.46,214.647,194.536,205.417,194.562,196.173"/>
      </g>
    </g>
  </g>
  <g>
    <g>
      <path id="SVGID_27_" fill="#D8D8D8" d="M328.133,273.289c-0.021,7.087-0.041,14.174-0.061,21.262
        c-0.026,9.243-6.102,18.475-18.24,25.527c-24.429,14.196-64.166,14.196-88.758-0.002c-12.373-7.145-18.553-16.521-18.526-25.884
        l0,0c0.02-7.087,0.04-14.174,0.06-21.262c-0.026,9.363,6.153,18.74,18.526,25.884c24.592,14.198,64.33,14.198,88.758,0.002
        C322.03,291.763,328.106,282.533,328.133,273.289z"/>
    </g>
    <g>
      <defs>
        <path id="SVGID_38_" d="M328.133,273.289c-0.021,7.087-0.041,14.174-0.061,21.262c-0.026,9.243-6.102,18.475-18.24,25.527
          c-24.429,14.196-64.166,14.196-88.758-0.002c-12.373-7.145-18.553-16.521-18.526-25.884l0,0c0.02-7.087,0.04-14.174,0.06-21.262
          c-0.026,9.363,6.153,18.74,18.526,25.884c24.592,14.198,64.33,14.198,88.758,0.002
          C322.03,291.763,328.106,282.533,328.133,273.289z"/>
      </defs>
      <clipPath id="SVGID_39_">
        <use xlink:href="#SVGID_38_"  overflow="visible"/>
      </clipPath>
      <g clip-path="url(#SVGID_39_)" enable-background="new    ">
        <path fill="#D8D8D8" d="M328.133,273.289l-0.061,21.261c-0.026,9.244-6.102,18.476-18.24,25.528
          c-24.429,14.196-64.166,14.196-88.758-0.002c-12.373-7.145-18.553-16.521-18.526-25.884l0.06-21.262
          c-0.026,9.363,6.153,18.74,18.526,25.884c24.592,14.198,64.33,14.198,88.758,0.002
          C322.03,291.763,328.106,282.533,328.133,273.289"/>
      </g>
    </g>
  </g>
  <g>
    <g>
      <path id="SVGID_29_" fill="#D8D8D8" d="M461.702,350.404c-0.021,7.087-0.04,14.174-0.062,21.262
        c-0.024,9.244-6.102,18.475-18.238,25.528c-24.43,14.195-64.167,14.195-88.755,0.001c-12.375-7.146-18.556-16.524-18.529-25.889
        l0.06-21.262c-0.026,9.363,6.154,18.742,18.529,25.888c24.588,14.195,64.326,14.195,88.754-0.001
        C455.601,368.879,461.677,359.648,461.702,350.404z"/>
    </g>
    <g>
      <defs>
        <path id="SVGID_40_" d="M461.702,350.404c-0.021,7.087-0.04,14.174-0.062,21.262c-0.024,9.244-6.102,18.475-18.238,25.528
          c-24.43,14.195-64.167,14.195-88.755,0.001c-12.375-7.146-18.556-16.524-18.529-25.889l0.06-21.262
          c-0.026,9.363,6.154,18.742,18.529,25.888c24.588,14.195,64.326,14.195,88.754-0.001
          C455.601,368.879,461.677,359.648,461.702,350.404z"/>
      </defs>
      <clipPath id="SVGID_41_">
        <use xlink:href="#SVGID_40_"  overflow="visible"/>
      </clipPath>
      <g clip-path="url(#SVGID_41_)" enable-background="new    ">
        <path fill="#D8D8D8" d="M461.702,350.404l-0.062,21.262c-0.024,9.244-6.102,18.475-18.238,25.528
          c-24.43,14.195-64.167,14.195-88.755,0.001c-12.375-7.146-18.556-16.524-18.529-25.889l0.06-21.262
          c-0.026,9.363,6.154,18.742,18.529,25.888c24.588,14.195,64.326,14.195,88.754-0.001
          C455.601,368.879,461.677,359.648,461.702,350.404"/>
      </g>
    </g>
  </g>
</g>

<g class="circle sec">
  <g opacity="0.05" class="shadow">
    <path d="M486.541,215.577c24.592,14.199,64.33,14.198,88.758,0.002c11.695-6.796,17.746-15.615,18.194-24.519l-64.972-37.511
      c-15.37,0.289-30.575,3.822-42.271,10.619C461.823,178.364,461.953,201.381,486.541,215.577z"/>
  </g>
  <g class="top">
    <path fill="#EDEDED" d="M575.006,94.167c24.592,14.198,24.722,37.216,0.293,51.412c-24.428,14.196-64.166,14.197-88.758-0.002
      c-24.588-14.196-24.718-37.213-0.289-51.41C510.68,79.972,550.418,79.971,575.006,94.167z"/>
  </g>
  <g class="bottom">
    <g>
      <path id="SVGID_15_" fill="#D8D8D8" d="M593.535,119.055c-0.021,7.087-0.04,14.174-0.061,21.262
        c-0.026,9.243-6.102,18.473-18.235,25.524c-24.43,14.196-64.166,14.197-88.76-0.002c-12.372-7.144-18.553-16.521-18.525-25.884
        l0.061-21.262c-0.025,9.363,6.153,18.741,18.526,25.884c24.592,14.199,64.33,14.198,88.758,0.002
        C587.435,137.527,593.509,128.298,593.535,119.055z"/>
    </g>
    <g>
      <defs>
        <path id="SVGID_22_" d="M593.535,119.055c-0.021,7.087-0.04,14.174-0.061,21.262c-0.026,9.243-6.102,18.473-18.235,25.524
          c-24.43,14.196-64.166,14.197-88.76-0.002c-12.372-7.144-18.553-16.521-18.525-25.884l0.061-21.262
          c-0.025,9.363,6.153,18.741,18.526,25.884c24.592,14.199,64.33,14.198,88.758,0.002
          C587.435,137.527,593.509,128.298,593.535,119.055z"/>
      </defs>
      <clipPath id="SVGID_24_">
        <use xlink:href="#SVGID_22_"  overflow="visible"/>
      </clipPath>
      <g clip-path="url(#SVGID_24_)" enable-background="new    ">
        <path fill="#D8D8D8" d="M593.535,119.055l-0.061,21.262c-0.026,9.243-6.102,18.473-18.235,25.524
          c-24.43,14.196-64.166,14.197-88.76-0.002c-12.372-7.144-18.553-16.521-18.525-25.884l0.061-21.262
          c-0.025,9.363,6.153,18.741,18.526,25.884c24.592,14.199,64.33,14.198,88.758,0.002
          C587.435,137.527,593.509,128.298,593.535,119.055"/>
      </g>
    </g>
  </g>
</g>

<g class="circle">
  <g opacity="0.05" class="shadow">
    <path d="M441.729,138.463c11.695-6.796,17.745-15.616,18.192-24.521L399.608,79.12c-1.517-0.875-3.968-0.877-5.479,0
      l-59.637,34.657c0.483,8.96,6.634,17.845,18.478,24.683C377.56,152.657,417.302,152.659,441.729,138.463z"/>
  </g>
  <g class="top">
    <path fill="#EDEDED" d="M441.438,17.051c24.588,14.196,24.722,37.216,0.293,51.413c-24.429,14.196-64.17,14.194-88.758-0.002
      c-24.588-14.196-24.718-37.214-0.289-51.41C377.11,2.855,416.849,2.855,441.438,17.051z"/>
  </g>
  <g class="bottom">
    <defs>
      <path id="SVGID_18_" d="M459.965,41.938c-0.021,7.088-0.04,14.174-0.061,21.262c-0.026,9.243-6.101,18.472-18.234,25.524
        c-24.429,14.196-64.171,14.194-88.759-0.002c-12.373-7.144-18.552-16.521-18.526-25.884l0.061-21.262
        c-0.027,9.363,6.153,18.74,18.526,25.884c24.588,14.196,64.33,14.198,88.758,0.002
        C453.864,60.411,459.938,51.182,459.965,41.938z"/>
    </defs>
    <clipPath id="SVGID_20_">
      <use xlink:href="#SVGID_18_"  overflow="visible"/>
    </clipPath>
    <g clip-path="url(#SVGID_20_)" enable-background="new    ">
      <path fill="#D8D8D8" d="M459.965,41.938L459.904,63.2c-0.026,9.243-6.101,18.473-18.234,25.524
        c-24.429,14.196-64.171,14.194-88.759-0.002c-12.373-7.144-18.552-16.521-18.526-25.884l0.061-21.262
        c-0.027,9.363,6.153,18.74,18.526,25.884c24.588,14.196,64.33,14.198,88.758,0.002
        C453.864,60.411,459.938,51.182,459.965,41.938"/>
    </g>
  </g>

</g>
<g>
  <g>
    <path fill="#EDEDED" d="M708.579,171.286c24.588,14.196,24.718,37.214,0.29,51.41c-24.43,14.196-64.167,14.197-88.755,0.001
      c-24.593-14.199-24.723-37.216-0.293-51.413C644.249,157.088,683.987,157.087,708.579,171.286z"/>
  </g>
  <g>
    <path fill="#EDEDED" d="M308.735,94.168c24.588,14.196,24.722,37.216,0.293,51.412c-24.433,14.198-64.174,14.196-88.762,0
      c-24.588-14.196-24.718-37.214-0.285-51.412C244.41,79.973,284.147,79.973,308.735,94.168z"/>
  </g>
  <g>
    <path fill="#EDEDED" d="M442.305,171.285c24.593,14.199,24.723,37.216,0.293,51.412c-24.433,14.199-64.168,14.199-88.762,0
      c-24.588-14.196-24.718-37.213-0.285-51.412C377.979,157.089,417.717,157.088,442.305,171.285z"/>
  </g>
  <g>
    <path fill="#EDEDED" d="M575.878,248.403c24.588,14.196,24.718,37.214,0.289,51.409c-24.433,14.199-64.17,14.199-88.758,0.004
      c-24.592-14.199-24.724-37.216-0.289-51.415C511.548,234.205,551.286,234.205,575.878,248.403z"/>
  </g>
  <g>
    <path fill="#EDEDED" d="M176.034,171.286c24.588,14.196,24.722,37.216,0.289,51.414c-24.428,14.196-64.17,14.194-88.758-0.002
      c-24.588-14.196-24.718-37.213-0.29-51.41C111.708,157.09,151.446,157.09,176.034,171.286z"/>
  </g>
  <g>
    <path fill="#EDEDED" d="M309.604,248.402c24.592,14.198,24.722,37.215,0.289,51.414c-24.428,14.196-64.166,14.196-88.758-0.002
      c-24.588-14.196-24.718-37.213-0.289-51.409C245.277,234.206,285.015,234.206,309.604,248.402z"/>
  </g>
  <g>
    <path fill="#EDEDED" d="M443.177,325.521c24.588,14.195,24.718,37.214,0.285,51.411c-24.429,14.196-64.166,14.196-88.754,0.001
      c-24.592-14.197-24.721-37.216-0.293-51.411C378.847,311.322,418.584,311.322,443.177,325.521z"/>
  </g>
</g>
<g opacity="0.4">
  <g>
    <polyline fill="none" stroke="#FFFFFF" stroke-width="4" stroke-linecap="round" stroke-linejoin="round" points="532,120 532,10
      762,10     "/>
  </g>
</g>
<g opacity="0.4">
  <g>

      <line fill="none" stroke="#FFFFFF" stroke-width="4" stroke-linecap="round" stroke-miterlimit="10" x1="543" y1="450" x2="762" y2="450"/>
  </g>
</g>
<g opacity="0.4">
  <g>

      <line fill="none" stroke="#FFFFFF" stroke-width="4" stroke-linecap="round" stroke-miterlimit="10" x1="243" y1="374" x2="11" y2="374"/>
  </g>
</g>
</svg>
